<?xml version="1.0" encoding="UTF-8"?><svg xmlns="http://www.w3.org/2000/svg" xmlns:xlink="http://www.w3.org/1999/xlink" contentScriptType="text/ecmascript" width="262.5pt" zoomAndPan="magnify" contentStyleType="text/css" viewBox="0 0 262.5 112.499997" height="112.499997pt" preserveAspectRatio="xMidYMid meet" version="1.2"><defs><g/><clipPath xml:id="clip1" id="clip1"><path d="M 1 3.21875 L 92 3.21875 L 92 108.996094 L 1 108.996094 Z M 1 3.21875 "/></clipPath></defs><g xml:id="surface1" id="surface1"><g clip-rule="nonzero" clip-path="url(#clip1)"><path style=" stroke:none;fill-rule:nonzero;fill:rgb(29.40979%,34.899902%,96.859741%);fill-opacity:1;" d="M 46.503906 3.378906 C 44.277344 3.382812 42.0625 3.546875 39.859375 3.878906 C 37.65625 4.210938 35.492188 4.703125 33.363281 5.355469 C 31.238281 6.007812 29.171875 6.8125 27.164062 7.773438 C 25.160156 8.730469 23.234375 9.832031 21.394531 11.078125 C 19.558594 12.324219 17.820312 13.695312 16.191406 15.199219 C 14.558594 16.703125 13.046875 18.316406 11.660156 20.042969 C 10.273438 21.769531 9.023438 23.589844 7.910156 25.503906 C 6.796875 27.414062 5.835938 29.398438 5.023438 31.457031 C 4.210938 33.511719 3.558594 35.613281 3.0625 37.769531 C 2.570312 39.921875 2.238281 42.097656 2.074219 44.300781 C 1.910156 46.5 1.910156 48.703125 2.078125 50.902344 C 2.246094 53.105469 2.578125 55.28125 3.074219 57.433594 C 3.570312 59.585938 4.226562 61.6875 5.042969 63.742188 C 5.855469 65.796875 6.820312 67.78125 7.933594 69.691406 C 9.050781 71.605469 10.300781 73.421875 11.691406 75.148438 C 13.082031 76.875 14.59375 78.488281 16.226562 79.988281 L 44.980469 108.507812 C 45.410156 108.898438 45.917969 109.101562 46.5 109.113281 C 47.113281 109.101562 47.65625 108.898438 48.128906 108.507812 L 76.429688 80.34375 C 78.09375 78.855469 79.636719 77.253906 81.058594 75.535156 C 82.480469 73.816406 83.761719 72.003906 84.90625 70.09375 C 86.054688 68.183594 87.046875 66.199219 87.890625 64.140625 C 88.730469 62.082031 89.414062 59.972656 89.9375 57.8125 C 90.457031 55.648438 90.8125 53.460938 91 51.25 C 91.1875 49.035156 91.207031 46.820312 91.058594 44.601562 C 90.910156 42.386719 90.59375 40.191406 90.109375 38.023438 C 89.628906 35.851562 88.984375 33.730469 88.175781 31.660156 C 87.371094 29.585938 86.414062 27.582031 85.300781 25.652344 C 84.191406 23.722656 82.941406 21.886719 81.550781 20.144531 C 80.160156 18.402344 78.644531 16.773438 77.007812 15.257812 C 75.367188 13.742188 73.625 12.355469 71.773438 11.101562 C 69.925781 9.847656 67.988281 8.734375 65.972656 7.769531 C 63.953125 6.804688 61.871094 5.992188 59.730469 5.339844 C 57.589844 4.683594 55.410156 4.195312 53.191406 3.867188 C 50.976562 3.535156 48.746094 3.375 46.503906 3.378906 Z M 36.285156 75.027344 C 35.902344 75.019531 35.527344 74.980469 35.152344 74.898438 C 34.78125 74.820312 34.417969 74.707031 34.070312 74.558594 C 33.71875 74.410156 33.386719 74.230469 33.070312 74.015625 C 32.757812 73.800781 32.464844 73.558594 32.199219 73.289062 C 31.933594 73.019531 31.695312 72.726562 31.488281 72.410156 C 31.277344 72.09375 31.105469 71.757812 30.960938 71.410156 C 30.820312 71.058594 30.710938 70.695312 30.640625 70.324219 C 30.570312 69.953125 30.539062 69.578125 30.542969 69.203125 C 30.542969 68.824219 30.585938 68.449219 30.664062 68.078125 C 30.742188 67.710938 30.855469 67.351562 31.003906 67.003906 C 31.152344 66.65625 31.332031 66.324219 31.546875 66.011719 C 31.761719 65.699219 32.003906 65.410156 32.277344 65.144531 C 32.546875 64.878906 32.84375 64.644531 33.160156 64.433594 C 33.480469 64.226562 33.816406 64.050781 34.167969 63.910156 C 34.519531 63.765625 34.886719 63.660156 35.257812 63.589844 C 35.632812 63.515625 36.011719 63.480469 36.394531 63.484375 C 36.773438 63.484375 37.152344 63.523438 37.523438 63.597656 C 37.898438 63.675781 38.261719 63.785156 38.613281 63.929688 C 38.964844 64.078125 39.296875 64.257812 39.613281 64.46875 C 39.929688 64.679688 40.222656 64.917969 40.492188 65.1875 C 40.761719 65.453125 41 65.746094 41.210938 66.058594 C 41.421875 66.375 41.601562 66.707031 41.746094 67.054688 C 41.890625 67.40625 42.003906 67.765625 42.074219 68.136719 C 42.148438 68.507812 42.1875 68.882812 42.1875 69.257812 C 42.183594 69.640625 42.140625 70.019531 42.0625 70.390625 C 41.988281 70.765625 41.871094 71.125 41.722656 71.476562 C 41.574219 71.828125 41.390625 72.160156 41.171875 72.476562 C 40.957031 72.792969 40.710938 73.085938 40.4375 73.351562 C 40.164062 73.621094 39.867188 73.859375 39.546875 74.066406 C 39.222656 74.277344 38.886719 74.453125 38.53125 74.597656 C 38.171875 74.742188 37.804688 74.847656 37.429688 74.921875 C 37.050781 74.992188 36.667969 75.027344 36.285156 75.027344 Z M 56.238281 75.027344 C 55.855469 75.027344 55.476562 74.988281 55.101562 74.914062 C 54.726562 74.84375 54.359375 74.734375 54.007812 74.589844 C 53.652344 74.441406 53.316406 74.265625 53 74.054688 C 52.683594 73.84375 52.386719 73.605469 52.117188 73.335938 C 51.847656 73.070312 51.605469 72.777344 51.390625 72.464844 C 51.179688 72.148438 51 71.816406 50.851562 71.464844 C 50.707031 71.113281 50.597656 70.753906 50.519531 70.382812 C 50.445312 70.011719 50.410156 69.636719 50.410156 69.257812 C 50.410156 68.875 50.445312 68.5 50.519531 68.128906 C 50.59375 67.757812 50.707031 67.398438 50.851562 67.046875 C 51 66.695312 51.175781 66.363281 51.390625 66.046875 C 51.601562 65.734375 51.84375 65.441406 52.113281 65.171875 C 52.386719 64.90625 52.679688 64.664062 52.996094 64.457031 C 53.316406 64.246094 53.652344 64.066406 54.003906 63.921875 C 54.359375 63.777344 54.722656 63.667969 55.097656 63.59375 C 55.472656 63.519531 55.851562 63.484375 56.234375 63.484375 C 56.617188 63.484375 56.996094 63.519531 57.371094 63.59375 C 57.746094 63.667969 58.109375 63.777344 58.460938 63.921875 C 58.816406 64.066406 59.152344 64.246094 59.46875 64.457031 C 59.785156 64.667969 60.082031 64.90625 60.351562 65.175781 C 60.621094 65.445312 60.863281 65.734375 61.074219 66.050781 C 61.289062 66.367188 61.464844 66.699219 61.613281 67.050781 C 61.757812 67.398438 61.867188 67.761719 61.941406 68.132812 C 62.019531 68.503906 62.054688 68.878906 62.054688 69.257812 C 62.050781 69.636719 62.011719 70.011719 61.9375 70.382812 C 61.859375 70.75 61.75 71.109375 61.601562 71.460938 C 61.457031 71.808594 61.277344 72.140625 61.0625 72.453125 C 60.851562 72.765625 60.613281 73.058594 60.34375 73.324219 C 60.074219 73.59375 59.78125 73.832031 59.464844 74.042969 C 59.148438 74.253906 58.8125 74.429688 58.460938 74.578125 C 58.109375 74.722656 57.746094 74.832031 57.375 74.910156 C 57 74.984375 56.621094 75.023438 56.242188 75.027344 Z M 65.875 40.691406 L 61.332031 57.558594 C 61.171875 58.113281 60.933594 58.625 60.605469 59.097656 C 60.28125 59.570312 59.890625 59.984375 59.429688 60.332031 C 58.972656 60.679688 58.46875 60.945312 57.921875 61.132812 C 57.375 61.320312 56.816406 61.417969 56.238281 61.425781 L 36.285156 61.425781 C 35.707031 61.429688 35.144531 61.339844 34.597656 61.15625 C 34.050781 60.972656 33.550781 60.707031 33.09375 60.359375 C 32.636719 60.011719 32.246094 59.597656 31.929688 59.121094 C 31.609375 58.644531 31.378906 58.128906 31.234375 57.574219 L 26.578125 40.691406 C 26.582031 40.65625 26.582031 40.621094 26.578125 40.585938 L 24.542969 33.121094 L 21.433594 33.121094 C 21.144531 33.105469 20.871094 33.039062 20.609375 32.921875 C 20.347656 32.804688 20.117188 32.640625 19.917969 32.433594 C 19.722656 32.230469 19.566406 31.992188 19.460938 31.730469 C 19.355469 31.464844 19.300781 31.1875 19.300781 30.902344 C 19.300781 30.617188 19.355469 30.34375 19.460938 30.078125 C 19.566406 29.816406 19.722656 29.578125 19.917969 29.375 C 20.117188 29.167969 20.347656 29.003906 20.609375 28.886719 C 20.871094 28.769531 21.144531 28.703125 21.433594 28.6875 L 26.257812 28.6875 C 26.496094 28.679688 26.734375 28.710938 26.960938 28.78125 C 27.191406 28.855469 27.402344 28.964844 27.59375 29.109375 C 27.785156 29.253906 27.945312 29.425781 28.074219 29.625 C 28.207031 29.824219 28.296875 30.039062 28.351562 30.273438 L 30.417969 37.949219 L 63.730469 37.949219 C 64.074219 37.929688 64.398438 37.992188 64.707031 38.144531 C 65.015625 38.292969 65.265625 38.511719 65.457031 38.792969 C 65.6875 39.050781 65.84375 39.347656 65.917969 39.6875 C 65.992188 40.023438 65.980469 40.359375 65.878906 40.691406 Z M 65.875 40.691406 "/></g><g style="fill:rgb(0%,0%,0%);fill-opacity:1;"><g transform="translate(94.267542, 61.981236)"><path style="stroke:none;" d="M 16.875 -6.734375 C 16.875 -5.359375 16.523438 -4.132812 15.828125 -3.0625 C 15.128906 -2 14.125 -1.171875 12.8125 -0.578125 C 11.5 0.00390625 9.960938 0.296875 8.203125 0.296875 C 6.722656 0.296875 5.484375 0.195312 4.484375 0 C 3.484375 -0.207031 2.441406 -0.570312 1.359375 -1.09375 L 1.359375 -6.421875 C 2.503906 -5.835938 3.691406 -5.378906 4.921875 -5.046875 C 6.148438 -4.722656 7.28125 -4.5625 8.3125 -4.5625 C 9.207031 -4.5625 9.859375 -4.710938 10.265625 -5.015625 C 10.679688 -5.328125 10.890625 -5.726562 10.890625 -6.21875 C 10.890625 -6.519531 10.804688 -6.78125 10.640625 -7 C 10.472656 -7.226562 10.203125 -7.457031 9.828125 -7.6875 C 9.460938 -7.925781 8.484375 -8.40625 6.890625 -9.125 C 5.453125 -9.78125 4.367188 -10.414062 3.640625 -11.03125 C 2.921875 -11.644531 2.382812 -12.347656 2.03125 -13.140625 C 1.6875 -13.941406 1.515625 -14.890625 1.515625 -15.984375 C 1.515625 -18.023438 2.253906 -19.613281 3.734375 -20.75 C 5.222656 -21.894531 7.265625 -22.46875 9.859375 -22.46875 C 12.148438 -22.46875 14.488281 -21.9375 16.875 -20.875 L 15.046875 -16.265625 C 12.972656 -17.210938 11.1875 -17.6875 9.6875 -17.6875 C 8.90625 -17.6875 8.335938 -17.546875 7.984375 -17.265625 C 7.628906 -16.992188 7.453125 -16.660156 7.453125 -16.265625 C 7.453125 -15.828125 7.675781 -15.4375 8.125 -15.09375 C 8.570312 -14.75 9.789062 -14.125 11.78125 -13.21875 C 13.695312 -12.351562 15.023438 -11.425781 15.765625 -10.4375 C 16.503906 -9.457031 16.875 -8.222656 16.875 -6.734375 Z M 16.875 -6.734375 "/></g></g><g style="fill:rgb(0%,0%,0%);fill-opacity:1;"><g transform="translate(112.17237, 61.981236)"><path style="stroke:none;" d="M 12.84375 0 L 12.84375 -9.359375 C 12.84375 -11.660156 12.160156 -12.8125 10.796875 -12.8125 C 9.828125 -12.8125 9.113281 -12.40625 8.65625 -11.59375 C 8.195312 -10.78125 7.96875 -9.429688 7.96875 -7.546875 L 7.96875 0 L 2.046875 0 L 2.046875 -23.578125 L 7.96875 -23.578125 L 7.96875 -20.234375 C 7.96875 -18.710938 7.890625 -16.984375 7.734375 -15.046875 L 8 -15.046875 C 8.5625 -15.929688 9.234375 -16.554688 10.015625 -16.921875 C 10.796875 -17.285156 11.703125 -17.46875 12.734375 -17.46875 C 14.648438 -17.46875 16.140625 -16.914062 17.203125 -15.8125 C 18.265625 -14.707031 18.796875 -13.160156 18.796875 -11.171875 L 18.796875 0 Z M 12.84375 0 "/></g></g><g style="fill:rgb(0%,0%,0%);fill-opacity:1;"><g transform="translate(132.955303, 61.981236)"><path style="stroke:none;" d="M 18.4375 -8.625 C 18.4375 -5.8125 17.679688 -3.617188 16.171875 -2.046875 C 14.660156 -0.484375 12.546875 0.296875 9.828125 0.296875 C 7.222656 0.296875 5.148438 -0.503906 3.609375 -2.109375 C 2.066406 -3.710938 1.296875 -5.882812 1.296875 -8.625 C 1.296875 -11.414062 2.050781 -13.585938 3.5625 -15.140625 C 5.070312 -16.691406 7.191406 -17.46875 9.921875 -17.46875 C 11.609375 -17.46875 13.097656 -17.109375 14.390625 -16.390625 C 15.679688 -15.671875 16.675781 -14.640625 17.375 -13.296875 C 18.082031 -11.960938 18.4375 -10.40625 18.4375 -8.625 Z M 7.3125 -8.625 C 7.3125 -7.144531 7.507812 -6.019531 7.90625 -5.25 C 8.300781 -4.476562 8.960938 -4.09375 9.890625 -4.09375 C 10.804688 -4.09375 11.453125 -4.476562 11.828125 -5.25 C 12.210938 -6.019531 12.40625 -7.144531 12.40625 -8.625 C 12.40625 -10.082031 12.210938 -11.1875 11.828125 -11.9375 C 11.453125 -12.6875 10.796875 -13.0625 9.859375 -13.0625 C 8.953125 -13.0625 8.300781 -12.6875 7.90625 -11.9375 C 7.507812 -11.195312 7.3125 -10.09375 7.3125 -8.625 Z M 7.3125 -8.625 "/></g></g><g style="fill:rgb(0%,0%,0%);fill-opacity:1;"><g transform="translate(152.723325, 61.981236)"><path style="stroke:none;" d="M 12.34375 0.296875 C 11.476562 0.296875 10.703125 0.15625 10.015625 -0.125 C 9.328125 -0.414062 8.644531 -0.9375 7.96875 -1.6875 L 7.703125 -1.6875 C 7.878906 -0.476562 7.96875 0.269531 7.96875 0.5625 L 7.96875 7.453125 L 2.046875 7.453125 L 2.046875 -17.171875 L 6.859375 -17.171875 L 7.703125 -14.984375 L 7.96875 -14.984375 C 9.070312 -16.640625 10.59375 -17.46875 12.53125 -17.46875 C 14.425781 -17.46875 15.914062 -16.679688 17 -15.109375 C 18.082031 -13.535156 18.625 -11.375 18.625 -8.625 C 18.625 -5.851562 18.0625 -3.671875 16.9375 -2.078125 C 15.8125 -0.492188 14.28125 0.296875 12.34375 0.296875 Z M 10.359375 -12.8125 C 9.492188 -12.8125 8.882812 -12.5 8.53125 -11.875 C 8.1875 -11.257812 8 -10.34375 7.96875 -9.125 L 7.96875 -8.65625 C 7.96875 -7.175781 8.164062 -6.109375 8.5625 -5.453125 C 8.957031 -4.796875 9.578125 -4.46875 10.421875 -4.46875 C 11.179688 -4.46875 11.734375 -4.789062 12.078125 -5.4375 C 12.421875 -6.09375 12.59375 -7.175781 12.59375 -8.6875 C 12.59375 -10.15625 12.421875 -11.207031 12.078125 -11.84375 C 11.734375 -12.488281 11.160156 -12.8125 10.359375 -12.8125 Z M 10.359375 -12.8125 "/></g></g><g style="fill:rgb(0%,0%,0%);fill-opacity:1;"><g transform="translate(172.673122, 61.981236)"><path style="stroke:none;" d="M 18.4375 -8.625 C 18.4375 -5.8125 17.679688 -3.617188 16.171875 -2.046875 C 14.660156 -0.484375 12.546875 0.296875 9.828125 0.296875 C 7.222656 0.296875 5.148438 -0.503906 3.609375 -2.109375 C 2.066406 -3.710938 1.296875 -5.882812 1.296875 -8.625 C 1.296875 -11.414062 2.050781 -13.585938 3.5625 -15.140625 C 5.070312 -16.691406 7.191406 -17.46875 9.921875 -17.46875 C 11.609375 -17.46875 13.097656 -17.109375 14.390625 -16.390625 C 15.679688 -15.671875 16.675781 -14.640625 17.375 -13.296875 C 18.082031 -11.960938 18.4375 -10.40625 18.4375 -8.625 Z M 7.3125 -8.625 C 7.3125 -7.144531 7.507812 -6.019531 7.90625 -5.25 C 8.300781 -4.476562 8.960938 -4.09375 9.890625 -4.09375 C 10.804688 -4.09375 11.453125 -4.476562 11.828125 -5.25 C 12.210938 -6.019531 12.40625 -7.144531 12.40625 -8.625 C 12.40625 -10.082031 12.210938 -11.1875 11.828125 -11.9375 C 11.453125 -12.6875 10.796875 -13.0625 9.859375 -13.0625 C 8.953125 -13.0625 8.300781 -12.6875 7.90625 -11.9375 C 7.507812 -11.195312 7.3125 -10.09375 7.3125 -8.625 Z M 7.3125 -8.625 "/></g></g><g style="fill:rgb(0%,0%,0%);fill-opacity:1;"><g transform="translate(192.441144, 61.981236)"><path style="stroke:none;" d="M 7.96875 0 L 2.046875 0 L 2.046875 -23.578125 L 7.96875 -23.578125 Z M 7.96875 0 "/></g></g><g style="fill:rgb(0%,0%,0%);fill-opacity:1;"><g transform="translate(202.46906, 61.981236)"><path style="stroke:none;" d="M 18.4375 -8.625 C 18.4375 -5.8125 17.679688 -3.617188 16.171875 -2.046875 C 14.660156 -0.484375 12.546875 0.296875 9.828125 0.296875 C 7.222656 0.296875 5.148438 -0.503906 3.609375 -2.109375 C 2.066406 -3.710938 1.296875 -5.882812 1.296875 -8.625 C 1.296875 -11.414062 2.050781 -13.585938 3.5625 -15.140625 C 5.070312 -16.691406 7.191406 -17.46875 9.921875 -17.46875 C 11.609375 -17.46875 13.097656 -17.109375 14.390625 -16.390625 C 15.679688 -15.671875 16.675781 -14.640625 17.375 -13.296875 C 18.082031 -11.960938 18.4375 -10.40625 18.4375 -8.625 Z M 7.3125 -8.625 C 7.3125 -7.144531 7.507812 -6.019531 7.90625 -5.25 C 8.300781 -4.476562 8.960938 -4.09375 9.890625 -4.09375 C 10.804688 -4.09375 11.453125 -4.476562 11.828125 -5.25 C 12.210938 -6.019531 12.40625 -7.144531 12.40625 -8.625 C 12.40625 -10.082031 12.210938 -11.1875 11.828125 -11.9375 C 11.453125 -12.6875 10.796875 -13.0625 9.859375 -13.0625 C 8.953125 -13.0625 8.300781 -12.6875 7.90625 -11.9375 C 7.507812 -11.195312 7.3125 -10.09375 7.3125 -8.625 Z M 7.3125 -8.625 "/></g></g><g style="fill:rgb(0%,0%,0%);fill-opacity:1;"><g transform="translate(222.237082, 61.981236)"><path style="stroke:none;" d="M 18.25 -17.171875 L 18.25 -14.296875 L 15.890625 -13.4375 C 16.210938 -12.851562 16.375 -12.171875 16.375 -11.390625 C 16.375 -9.546875 15.722656 -8.113281 14.421875 -7.09375 C 13.128906 -6.070312 11.195312 -5.5625 8.625 -5.5625 C 7.988281 -5.5625 7.484375 -5.601562 7.109375 -5.6875 C 6.960938 -5.414062 6.890625 -5.164062 6.890625 -4.9375 C 6.890625 -4.644531 7.125 -4.421875 7.59375 -4.265625 C 8.070312 -4.109375 8.695312 -4.03125 9.46875 -4.03125 L 12.3125 -4.03125 C 16.164062 -4.03125 18.09375 -2.410156 18.09375 0.828125 C 18.09375 2.921875 17.203125 4.546875 15.421875 5.703125 C 13.640625 6.867188 11.132812 7.453125 7.90625 7.453125 C 5.46875 7.453125 3.585938 7.046875 2.265625 6.234375 C 0.953125 5.421875 0.296875 4.253906 0.296875 2.734375 C 0.296875 0.679688 1.570312 -0.644531 4.125 -1.25 C 3.59375 -1.46875 3.132812 -1.820312 2.75 -2.3125 C 2.363281 -2.8125 2.171875 -3.300781 2.171875 -3.78125 C 2.171875 -4.320312 2.316406 -4.796875 2.609375 -5.203125 C 2.898438 -5.609375 3.507812 -6.097656 4.4375 -6.671875 C 3.550781 -7.054688 2.851562 -7.664062 2.34375 -8.5 C 1.832031 -9.34375 1.578125 -10.367188 1.578125 -11.578125 C 1.578125 -13.441406 2.210938 -14.890625 3.484375 -15.921875 C 4.753906 -16.953125 6.570312 -17.46875 8.9375 -17.46875 C 9.25 -17.46875 9.789062 -17.429688 10.5625 -17.359375 C 11.332031 -17.296875 11.898438 -17.234375 12.265625 -17.171875 Z M 5.296875 2.140625 C 5.296875 2.617188 5.554688 3.003906 6.078125 3.296875 C 6.609375 3.597656 7.316406 3.75 8.203125 3.75 C 9.628906 3.75 10.773438 3.570312 11.640625 3.21875 C 12.503906 2.863281 12.9375 2.398438 12.9375 1.828125 C 12.9375 1.378906 12.671875 1.0625 12.140625 0.875 C 11.617188 0.6875 10.867188 0.59375 9.890625 0.59375 L 7.578125 0.59375 C 6.941406 0.59375 6.398438 0.738281 5.953125 1.03125 C 5.515625 1.332031 5.296875 1.703125 5.296875 2.140625 Z M 7.171875 -11.546875 C 7.171875 -9.785156 7.78125 -8.90625 9 -8.90625 C 9.5625 -8.90625 9.992188 -9.125 10.296875 -9.5625 C 10.609375 -10 10.765625 -10.648438 10.765625 -11.515625 C 10.765625 -13.296875 10.175781 -14.1875 9 -14.1875 C 7.78125 -14.1875 7.171875 -13.304688 7.171875 -11.546875 Z M 7.171875 -11.546875 "/></g></g><g style="fill:rgb(0%,0%,0%);fill-opacity:1;"><g transform="translate(241.035638, 61.981236)"><path style="stroke:none;" d="M -0.03125 -17.171875 L 6.21875 -17.171875 L 9.125 -7.3125 C 9.257812 -6.800781 9.351562 -6.179688 9.40625 -5.453125 L 9.53125 -5.453125 C 9.613281 -6.148438 9.734375 -6.757812 9.890625 -7.28125 L 12.875 -17.171875 L 18.921875 -17.171875 L 12.140625 1.09375 C 11.265625 3.414062 10.191406 5.054688 8.921875 6.015625 C 7.660156 6.972656 6.007812 7.453125 3.96875 7.453125 C 3.175781 7.453125 2.367188 7.367188 1.546875 7.203125 L 1.546875 2.546875 C 2.078125 2.671875 2.6875 2.734375 3.375 2.734375 C 3.90625 2.734375 4.363281 2.628906 4.75 2.421875 C 5.144531 2.222656 5.488281 1.9375 5.78125 1.5625 C 6.082031 1.195312 6.398438 0.59375 6.734375 -0.25 Z M -0.03125 -17.171875 "/></g></g></g></svg>